<svg width="1918" height="694" viewBox="0 0 1918 694" fill="none" xmlns="http://www.w3.org/2000/svg">
<g clip-path="url(#clip0_11_46)">
<path d="M0.799255 38.3344C0.799255 38.3344 15.1858 31.3252 19.3152 19.9027C23.4447 8.48029 38.7636 0.865326 38.7636 0.865326" stroke="#F3F3F3" stroke-opacity="0.15" stroke-width="2" stroke-miterlimit="10"/>
<path d="M0.799255 69.4865C0.799255 69.4865 50.0864 59.6217 63.1408 34.7865C75.6624 10.6436 126.282 0.865326 126.282 0.865326" stroke="#F3F3F3" stroke-opacity="0.15" stroke-width="2" stroke-miterlimit="10"/>
<path d="M0.799255 100.639C0.799255 100.639 84.987 87.9182 106.833 49.7569C127.88 12.98 213.799 0.865326 213.799 0.865326" stroke="#F3F3F3" stroke-opacity="0.15" stroke-width="2" stroke-miterlimit="10"/>
<path d="M0.799255 131.877C0.799255 131.877 119.754 116.215 150.659 64.7272C180.098 15.2299 301.184 0.865326 301.184 0.865326" stroke="#F3F3F3" stroke-opacity="0.15" stroke-width="2" stroke-miterlimit="10"/>
<path d="M0.799255 163.029C0.799255 163.029 154.655 144.511 194.351 79.6975C232.315 17.5663 388.702 0.865326 388.702 0.865326" stroke="#F3F3F3" stroke-opacity="0.15" stroke-width="2" stroke-miterlimit="10"/>
<path d="M0.799255 194.182C0.799255 194.182 189.556 172.808 238.177 94.5813C284.533 19.9027 476.22 0.865326 476.22 0.865326" stroke="#F3F3F3" stroke-opacity="0.15" stroke-width="2" stroke-miterlimit="10"/>
<path d="M0.799255 225.42C0.799255 225.42 224.323 201.104 281.869 109.638C336.751 22.1526 563.738 0.865326 563.738 0.865326" stroke="#F3F3F3" stroke-opacity="0.15" stroke-width="2" stroke-miterlimit="10"/>
<path d="M0.799255 256.572C0.799255 256.572 259.224 229.401 325.695 124.522C388.969 24.489 651.256 0.865326 651.256 0.865326" stroke="#F3F3F3" stroke-opacity="0.15" stroke-width="2" stroke-miterlimit="10"/>
<path d="M0.799255 287.724C0.799255 287.724 294.124 257.697 369.52 139.492C441.186 26.8254 738.641 0.865326 738.641 0.865326" stroke="#F3F3F3" stroke-opacity="0.15" stroke-width="2" stroke-miterlimit="10"/>
<path d="M0.799255 318.963C0.799255 318.963 328.891 286.08 413.212 154.463C493.537 29.0753 826.158 0.865326 826.158 0.865326" stroke="#F3F3F3" stroke-opacity="0.15" stroke-width="2" stroke-miterlimit="10"/>
<path d="M0.799255 350.115C0.799255 350.115 363.792 314.29 457.038 169.433C545.755 31.4117 913.676 0.865326 913.676 0.865326" stroke="#F3F3F3" stroke-opacity="0.15" stroke-width="2" stroke-miterlimit="10"/>
<path d="M0.799255 381.267C0.799255 381.267 398.693 342.587 500.73 184.317C597.972 33.7481 1001.19 0.865326 1001.19 0.865326" stroke="#F3F3F3" stroke-opacity="0.15" stroke-width="2" stroke-miterlimit="10"/>
<path d="M0.799255 412.506C0.799255 412.506 433.46 370.97 544.556 199.374C650.19 35.998 1088.58 0.865326 1088.58 0.865326" stroke="#F3F3F3" stroke-opacity="0.15" stroke-width="2" stroke-miterlimit="10"/>
<path d="M0.799255 443.658C0.799255 443.658 468.361 399.266 588.248 214.344C702.408 38.3344 1176.1 0.865326 1176.1 0.865326" stroke="#F3F3F3" stroke-opacity="0.15" stroke-width="2" stroke-miterlimit="10"/>
<path d="M0.799255 474.897C0.799255 474.897 503.261 427.563 632.074 229.314C754.626 40.6708 1263.61 0.865326 1263.61 0.865326" stroke="#F3F3F3" stroke-opacity="0.15" stroke-width="2" stroke-miterlimit="10"/>
<path d="M0.799255 506.049C0.799255 506.049 538.029 455.859 675.766 244.285C806.843 42.9207 1351.13 0.865326 1351.13 0.865326" stroke="#F3F3F3" stroke-opacity="0.15" stroke-width="2" stroke-miterlimit="10"/>
<path d="M0.799255 537.201C0.799255 537.201 572.929 484.156 719.592 259.168C859.061 45.2571 1438.65 0.865326 1438.65 0.865326" stroke="#F3F3F3" stroke-opacity="0.15" stroke-width="2" stroke-miterlimit="10"/>
<path d="M0.799255 568.44C0.799255 568.44 607.83 512.452 763.417 274.225C911.279 47.5935 1526.04 0.865326 1526.04 0.865326" stroke="#F3F3F3" stroke-opacity="0.15" stroke-width="2" stroke-miterlimit="10"/>
<path d="M0.799255 599.592C0.799255 599.592 642.597 540.749 807.11 289.109C963.496 49.8434 1613.55 0.865326 1613.55 0.865326" stroke="#F3F3F3" stroke-opacity="0.15" stroke-width="2" stroke-miterlimit="10"/>
<path d="M0.799255 630.744C0.799255 630.744 677.498 569.045 850.935 304.079C1015.71 52.1798 1701.07 0.865326 1701.07 0.865326" stroke="#F3F3F3" stroke-opacity="0.15" stroke-width="2" stroke-miterlimit="10"/>
<path d="M0.799255 661.983C0.799255 661.983 712.398 597.428 894.628 319.05C1067.93 54.5162 1788.59 0.865326 1788.59 0.865326" stroke="#F3F3F3" stroke-opacity="0.15" stroke-width="2" stroke-miterlimit="10"/>
<path d="M0.799255 693.135C0.799255 693.135 747.166 625.638 938.453 334.02C1120.15 56.7661 1875.97 0.865326 1875.97 0.865326" stroke="#F3F3F3" stroke-opacity="0.15" stroke-width="2" stroke-miterlimit="10"/>
<path d="M1914.07 655.666C1914.07 655.666 1899.68 662.675 1895.56 674.097C1891.43 685.606 1876.11 693.048 1876.11 693.048" stroke="white" stroke-opacity="0.11" stroke-width="2" stroke-miterlimit="10"/>
<path d="M1914.07 624.513C1914.07 624.513 1864.78 634.378 1851.73 659.213C1839.21 683.356 1788.59 693.135 1788.59 693.135" stroke="white" stroke-opacity="0.11" stroke-width="2" stroke-miterlimit="10"/>
<path d="M1914.07 593.361C1914.07 593.361 1829.88 606.082 1808.04 644.243C1786.86 681.02 1701.07 693.135 1701.07 693.135" stroke="white" stroke-opacity="0.11" stroke-width="2" stroke-miterlimit="10"/>
<path d="M1914.07 562.123C1914.07 562.123 1795.12 577.785 1764.21 629.273C1734.77 678.684 1613.55 693.135 1613.55 693.135" stroke="white" stroke-opacity="0.11" stroke-width="2" stroke-miterlimit="10"/>
<path d="M1914.07 530.97C1914.07 530.97 1760.22 549.489 1720.52 614.302C1682.56 676.434 1526.17 693.135 1526.17 693.135" stroke="white" stroke-opacity="0.11" stroke-width="2" stroke-miterlimit="10"/>
<path d="M1914.07 499.732C1914.07 499.732 1725.32 521.106 1676.69 599.332C1630.2 674.097 1438.65 693.135 1438.65 693.135" stroke="white" stroke-opacity="0.11" stroke-width="2" stroke-miterlimit="10"/>
<path d="M1914.07 468.58C1914.07 468.58 1690.55 492.896 1633 584.362C1578.12 671.761 1351.27 693.135 1351.27 693.135" stroke="white" stroke-opacity="0.11" stroke-width="2" stroke-miterlimit="10"/>
<path d="M1914.07 437.428C1914.07 437.428 1655.65 464.599 1589.18 569.478C1525.77 669.511 1263.61 693.135 1263.61 693.135" stroke="white" stroke-opacity="0.11" stroke-width="2" stroke-miterlimit="10"/>
<path d="M1914.07 406.189C1914.07 406.189 1620.75 436.216 1545.35 554.421C1473.55 667.175 1176.1 693.135 1176.1 693.135" stroke="white" stroke-opacity="0.11" stroke-width="2" stroke-miterlimit="10"/>
<path d="M1914.07 375.037C1914.07 375.037 1585.98 407.92 1501.66 539.537C1421.33 664.838 1088.58 693.135 1088.58 693.135" stroke="white" stroke-opacity="0.11" stroke-width="2" stroke-miterlimit="10"/>
<path d="M1914.07 343.885C1914.07 343.885 1551.08 379.71 1457.83 524.567C1369.12 662.588 1001.19 693.135 1001.19 693.135" stroke="white" stroke-opacity="0.11" stroke-width="2" stroke-miterlimit="10"/>
<path d="M1914.07 312.646C1914.07 312.646 1516.18 351.327 1414.14 509.597C1316.9 660.252 913.676 693.135 913.676 693.135" stroke="white" stroke-opacity="0.11" stroke-width="2" stroke-miterlimit="10"/>
<path d="M1914.07 281.494C1914.07 281.494 1481.41 323.03 1370.31 494.626C1264.68 658.002 826.158 693.135 826.158 693.135" stroke="white" stroke-opacity="0.11" stroke-width="2" stroke-miterlimit="10"/>
<path d="M1914.07 250.342C1914.07 250.342 1446.51 294.734 1326.62 479.656C1212.46 655.666 738.64 693.135 738.64 693.135" stroke="white" stroke-opacity="0.11" stroke-width="2" stroke-miterlimit="10"/>
<path d="M1914.07 219.103C1914.07 219.103 1411.61 266.437 1282.8 464.686C1160.25 653.329 651.256 693.135 651.256 693.135" stroke="white" stroke-opacity="0.11" stroke-width="2" stroke-miterlimit="10"/>
<path d="M1914.07 187.951C1914.07 187.951 1376.84 238.141 1239.1 449.715C1108.03 651.079 563.738 693.135 563.738 693.135" stroke="white" stroke-opacity="0.11" stroke-width="2" stroke-miterlimit="10"/>
<path d="M1914.07 156.799C1914.07 156.799 1341.94 209.844 1195.28 434.832C1055.81 648.743 476.22 693.135 476.22 693.135" stroke="white" stroke-opacity="0.11" stroke-width="2" stroke-miterlimit="10"/>
<path d="M1914.07 125.56C1914.07 125.56 1307.04 181.548 1151.45 419.775C1003.59 646.407 388.702 693.135 388.702 693.135" stroke="white" stroke-opacity="0.11" stroke-width="2" stroke-miterlimit="10"/>
<path d="M1914.07 94.4082C1914.07 94.4082 1272.27 153.251 1107.76 404.891C951.374 644.157 301.184 693.135 301.184 693.135" stroke="white" stroke-opacity="0.11" stroke-width="2" stroke-miterlimit="10"/>
<path d="M1914.07 63.2561C1914.07 63.2561 1237.37 124.955 1063.94 389.921C899.157 641.82 213.799 693.135 213.799 693.135" stroke="white" stroke-opacity="0.11" stroke-width="2" stroke-miterlimit="10"/>
<path d="M1914.07 32.0175C1914.07 32.0175 1202.47 96.5715 1020.24 374.95C846.806 639.484 126.282 693.134 126.282 693.134" stroke="white" stroke-opacity="0.11" stroke-width="2" stroke-miterlimit="10"/>
<path d="M1914.07 0.865326C1914.07 0.865326 1167.7 68.3616 976.417 359.98C794.588 637.234 38.7636 693.135 38.7636 693.135" stroke="white" stroke-opacity="0.11" stroke-width="2" stroke-miterlimit="10"/>
</g>
<defs>
<clipPath id="clip0_11_46">
<rect width="1919" height="694" fill="white"/>
</clipPath>
</defs>
</svg>
